<svg width="50" height="50" viewBox="0 0 50 50" fill="none" xmlns="http://www.w3.org/2000/svg">
<g clip-path="url(#clip0_3181_382)">
<path d="M34.2105 0H15.7895C7.06919 0 0 7.06919 0 15.7895V34.2105C0 42.9308 7.06919 50 15.7895 50H34.2105C42.9308 50 50 42.9308 50 34.2105V15.7895C50 7.06919 42.9308 0 34.2105 0Z" fill="black"/>
<mask id="mask0_3181_382" style="mask-type:alpha" maskUnits="userSpaceOnUse" x="12" y="12" width="26" height="26">
<path d="M25 37.5C31.9036 37.5 37.5 31.9036 37.5 25C37.5 18.0964 31.9036 12.5 25 12.5C18.0964 12.5 12.5 18.0964 12.5 25C12.5 31.9036 18.0964 37.5 25 37.5Z" fill="#D9D9D9"/>
</mask>
<g mask="url(#mask0_3181_382)">
<path d="M25 37.5C31.9036 37.5 37.5 31.9036 37.5 25C37.5 18.0964 31.9036 12.5 25 12.5C18.0964 12.5 12.5 18.0964 12.5 25C12.5 31.9036 18.0964 37.5 25 37.5Z" fill="url(#paint0_linear_3181_382)"/>
<path fill-rule="evenodd" clip-rule="evenodd" d="M11.8421 8.55273V11.8422H7.89471V12.5001H11.8421V17.1054H7.89471V17.7633H11.8421V22.3685H7.89471V23.0264H11.8421V27.6317H7.89471V28.2896H11.8421V32.8948H7.89471V33.5527H11.8421V38.158H7.89471V38.8159H11.8421V42.7633H12.5V38.8159H17.1052V42.7633H17.7631V38.8159H22.3684V42.7633H23.0263V38.8159H27.6316V42.7633H28.2895V38.8159H32.8947V42.7633H33.5526V38.8159H38.1579V42.7633H38.8158V38.8159H42.1052V38.158H38.8158V33.5527H42.1052V32.8948H38.8158V28.2896H42.1052V27.6317H38.8158V23.0264H42.1052V22.3685H38.8158V17.7633H42.1052V17.1054H38.8158V12.5001H42.1052V11.8422H38.8158V8.55273H38.1579V11.8422H33.5526V8.55273H32.8947V11.8422H28.2895V8.55273H27.6316V11.8422H23.0263V8.55273H22.3684V11.8422H17.7631V8.55273H17.1052V11.8422H12.5V8.55273H11.8421ZM38.1579 38.158V33.5527H33.5526V38.158H38.1579ZM32.8947 38.158V33.5527H28.2895V38.158H32.8947ZM27.6316 38.158V33.5527H23.0263V38.158H27.6316ZM22.3684 38.158V33.5527H17.7631V38.158H22.3684ZM17.1052 38.158V33.5527H12.5V38.158H17.1052ZM17.1052 32.8948H12.5V28.2896H17.1052V32.8948ZM22.3684 32.8948H17.7631V28.2896H22.3684V32.8948ZM27.6316 32.8948H23.0263V28.2896H27.6316V32.8948ZM32.8947 32.8948H28.2895V28.2896H32.8947V32.8948ZM38.1579 32.8948H33.5526V28.2896H38.1579V32.8948ZM38.1579 27.6317V23.0264H33.5526V27.6317H38.1579ZM32.8947 27.6317V23.0264H28.2895V27.6317H32.8947ZM27.6316 27.6317V23.0264H23.0263V27.6317H27.6316ZM22.3684 27.6317V23.0264H17.7631V27.6317H22.3684ZM17.1052 27.6317V23.0264H12.5V27.6317H17.1052ZM17.1052 22.3685H12.5V17.7633H17.1052V22.3685ZM22.3684 22.3685H17.7631V17.7633H22.3684V22.3685ZM27.6316 22.3685H23.0263V17.7633H27.6316V22.3685ZM32.8947 22.3685H28.2895V17.7633H32.8947V22.3685ZM38.1579 22.3685H33.5526V17.7633H38.1579V22.3685ZM38.1579 17.1054V12.5001H33.5526V17.1054H38.1579ZM32.8947 17.1054V12.5001H28.2895V17.1054H32.8947ZM27.6316 17.1054V12.5001H23.0263V17.1054H27.6316ZM22.3684 17.1054V12.5001H17.7631V17.1054H22.3684ZM17.1052 17.1054V12.5001H12.5V17.1054H17.1052Z" fill="url(#paint1_linear_3181_382)"/>
</g>
</g>
<defs>
<linearGradient id="paint0_linear_3181_382" x1="25" y1="12.5" x2="29.6875" y2="41.4062" gradientUnits="userSpaceOnUse">
<stop stop-color="white"/>
<stop offset="1" stop-color="#B7B2B2"/>
</linearGradient>
<linearGradient id="paint1_linear_3181_382" x1="18.421" y1="15.4606" x2="25" y2="38.8159" gradientUnits="userSpaceOnUse">
<stop stop-color="white"/>
<stop offset="1" stop-color="#EDEDED" stop-opacity="0"/>
</linearGradient>
<clipPath id="clip0_3181_382">
<rect width="50" height="50" fill="white"/>
</clipPath>
</defs>
</svg>
